<svg width="15" height="13" viewBox="0 0 15 13" fill="none" xmlns="http://www.w3.org/2000/svg">
<mask id="path-1-inside-1_12_78" fill="white">
<path d="M7.45 4.5C8.69264 4.5 9.7 5.45829 9.7 6.64039C9.7 7.30019 9.3854 7.88914 8.89182 8.2815C8.77081 8.37769 8.5992 8.35859 8.48671 8.25257C8.31277 8.08865 8.35953 7.79678 8.52981 7.62906C8.78985 7.37293 8.95 7.02477 8.95 6.64039C8.95 5.85232 8.27842 5.21346 7.45 5.21346C6.62157 5.21346 5.95 5.85232 5.95 6.64039C5.95 7.05997 6.14059 7.43667 6.44378 7.69742C6.62976 7.85736 6.69177 8.16169 6.51471 8.33145C6.40997 8.43187 6.25082 8.45511 6.13135 8.37277C5.5674 7.98407 5.2 7.35358 5.2 6.64039C5.2 5.45829 6.20736 4.5 7.45 4.5Z"/>
</mask>
<path d="M7.45 4.5C8.69264 4.5 9.7 5.45829 9.7 6.64039C9.7 7.30019 9.3854 7.88914 8.89182 8.2815C8.77081 8.37769 8.5992 8.35859 8.48671 8.25257C8.31277 8.08865 8.35953 7.79678 8.52981 7.62906C8.78985 7.37293 8.95 7.02477 8.95 6.64039C8.95 5.85232 8.27842 5.21346 7.45 5.21346C6.62157 5.21346 5.95 5.85232 5.95 6.64039C5.95 7.05997 6.14059 7.43667 6.44378 7.69742C6.62976 7.85736 6.69177 8.16169 6.51471 8.33145C6.40997 8.43187 6.25082 8.45511 6.13135 8.37277C5.5674 7.98407 5.2 7.35358 5.2 6.64039C5.2 5.45829 6.20736 4.5 7.45 4.5Z" fill="black"/>
<path d="M6.51471 8.33145L5.13055 6.8878L6.51471 8.33145ZM8.48671 8.25257L7.115 9.70805L8.48671 8.25257ZM8.52981 7.62906L9.93326 9.05396L8.52981 7.62906ZM8.89182 8.2815L10.1363 9.84712L8.89182 8.2815ZM7.45 4.5V6.5C7.55152 6.5 7.6223 6.53772 7.66251 6.57597C7.70098 6.61257 7.7 6.63479 7.7 6.64039H9.7H11.7C11.7 4.26077 9.70191 2.5 7.45 2.5V4.5ZM9.7 6.64039H7.7C7.7 6.648 7.69905 6.65309 7.69464 6.66185C7.68901 6.67302 7.67529 6.69363 7.64729 6.71588L8.89182 8.2815L10.1363 9.84712C11.0675 9.1069 11.7 7.95892 11.7 6.64039H9.7ZM8.52981 7.62906L9.93326 9.05396C10.5476 8.44885 10.95 7.59766 10.95 6.64039H8.95H6.95C6.95 6.45188 7.03209 6.29701 7.12636 6.20416L8.52981 7.62906ZM8.95 6.64039H10.95C10.95 4.65481 9.2877 3.21346 7.45 3.21346V5.21346V7.21346C7.26915 7.21346 6.95 7.04984 6.95 6.64039H8.95ZM7.45 5.21346V3.21346C5.61229 3.21346 3.95 4.65481 3.95 6.64039H5.95H7.95C7.95 7.04984 7.63084 7.21346 7.45 7.21346V5.21346ZM5.95 6.64039H3.95C3.95 7.68623 4.42886 8.60245 5.13969 9.21378L6.44378 7.69742L7.74787 6.18106C7.85233 6.2709 7.95 6.4337 7.95 6.64039H5.95ZM6.13135 8.37277L7.26636 6.72602C7.23222 6.70249 7.21445 6.67867 7.20688 6.66489C7.2009 6.65401 7.2 6.64816 7.2 6.64039H5.2H3.2C3.2 8.06729 3.93858 9.29045 4.99635 10.0195L6.13135 8.37277ZM5.2 6.64039H7.2C7.2 6.63479 7.19901 6.61257 7.23748 6.57597C7.2777 6.53772 7.34848 6.5 7.45 6.5V4.5V2.5C5.19808 2.5 3.2 4.26077 3.2 6.64039H5.2ZM6.51471 8.33145L5.13055 6.8878C5.61445 6.42385 6.49923 6.19729 7.26636 6.72602L6.13135 8.37277L4.99635 10.0195C6.0024 10.7129 7.20549 10.4399 7.89886 9.7751L6.51471 8.33145ZM8.48671 8.25257L9.85841 6.79709C10.3077 7.22052 10.4064 7.76286 10.3696 8.13763C10.3348 8.49191 10.1796 8.81129 9.93326 9.05396L8.52981 7.62906L7.12636 6.20416C6.70971 6.61455 6.44599 7.16372 6.38875 7.74684C6.32949 8.35047 6.49178 9.1207 7.115 9.70805L8.48671 8.25257ZM6.44378 7.69742L5.13969 9.21378C4.85974 8.97302 4.68563 8.64754 4.63516 8.29128C4.58182 7.9148 4.65908 7.33985 5.13055 6.8878L6.51471 8.33145L7.89886 9.7751C8.54739 9.15329 8.68218 8.34129 8.59561 7.73022C8.51191 7.13937 8.2138 6.58176 7.74787 6.18106L6.44378 7.69742ZM8.89182 8.2815L7.64729 6.71588C8.41508 6.10556 9.35518 6.32282 9.85841 6.79709L8.48671 8.25257L7.115 9.70805C7.84323 10.3944 9.12654 10.6498 10.1363 9.84712L8.89182 8.2815Z" fill="black" mask="url(#path-1-inside-1_12_78)"/>
<path d="M5.5 1H1V6H5.56543C5.5242 6.15999 5.5 6.32714 5.5 6.5C5.5 6.67286 5.5242 6.84001 5.56543 7H1V12H5.5V13H0V0H5.5V1Z" fill="black"/>
<path d="M15 13H9.5V12H14V7H9.43457C9.4758 6.84001 9.5 6.67286 9.5 6.5C9.5 6.32714 9.4758 6.15999 9.43457 6H14V1H9.5V0H15V13Z" fill="black"/>
</svg>
