<svg width="14" height="9" viewBox="0 0 14 9" fill="none" xmlns="http://www.w3.org/2000/svg">
<mask id="path-1-inside-1_12_42" fill="white">
<path d="M11 1H13V2H10V1H1V7H2V6H7V7H13.5V7.76758L11.7773 8.91602L11.2227 8.08398L11.3486 8H6V7H3V8H0V0H11V1Z"/>
</mask>
<path d="M11 1H13V2H10V1H1V7H2V6H7V7H13.5V7.76758L11.7773 8.91602L11.2227 8.08398L11.3486 8H6V7H3V8H0V0H11V1Z" fill="black"/>
<path d="M11 1H10V2H11V1ZM13 1H14V0H13V1ZM13 2V3H14V2H13ZM10 2H9V3H10V2ZM10 1H11V0H10V1ZM1 1V0H0V1H1ZM1 7H0V8H1V7ZM2 7V8H3V7H2ZM2 6V5H1V6H2ZM7 6H8V5H7V6ZM7 7H6V8H7V7ZM13.5 7H14.5V6H13.5V7ZM13.5 7.76758L14.0547 8.59963L14.5 8.30276V7.76758H13.5ZM11.7773 8.91602L10.9453 9.47072L11.5 10.3028L12.332 9.74807L11.7773 8.91602ZM11.2227 8.08398L10.668 7.25193L9.83591 7.80663L10.3906 8.63868L11.2227 8.08398ZM11.3486 8L11.9033 8.83205L14.6514 7H11.3486V8ZM6 8H5V9H6V8ZM6 7H7V6H6V7ZM3 7V6H2V7H3ZM3 8V9H4V8H3ZM0 8H-1V9H0V8ZM0 0V-1H-1V0H0ZM11 0H12V-1H11V0ZM11 1V2H13V1V0H11V1ZM13 1H12V2H13H14V1H13ZM13 2V1H10V2V3H13V2ZM10 2H11V1H10H9V2H10ZM10 1V0H1V1V2H10V1ZM1 1H0V7H1H2V1H1ZM1 7V8H2V7V6H1V7ZM2 7H3V6H2H1V7H2ZM2 6V7H7V6V5H2V6ZM7 6H6V7H7H8V6H7ZM7 7V8H13.5V7V6H7V7ZM13.5 7H12.5V7.76758H13.5H14.5V7H13.5ZM13.5 7.76758L12.9453 6.93553L11.2226 8.08397L11.7773 8.91602L12.332 9.74807L14.0547 8.59963L13.5 7.76758ZM11.7773 8.91602L12.6094 8.36132L12.0547 7.52928L11.2227 8.08398L10.3906 8.63868L10.9453 9.47072L11.7773 8.91602ZM11.2227 8.08398L11.7774 8.91603L11.9033 8.83205L11.3486 8L10.7939 7.16795L10.668 7.25193L11.2227 8.08398ZM11.3486 8V7H6V8V9H11.3486V8ZM6 8H7V7H6H5V8H6ZM6 7V6H3V7V8H6V7ZM3 7H2V8H3H4V7H3ZM3 8V7H0V8V9H3V8ZM0 8H1V0H0H-1V8H0ZM0 0V1H11V0V-1H0V0ZM11 0H10V1H11H12V0H11Z" fill="black" mask="url(#path-1-inside-1_12_42)"/>
</svg>
