<svg width="33" height="20" viewBox="0 0 33 20" fill="none" xmlns="http://www.w3.org/2000/svg">
<path d="M0.5 0V19.1875H16.5V10H32V0V19.1875" stroke="black"/>
<mask id="path-2-inside-1_12_76" fill="white">
<path d="M18.8254 17.6129C18.6823 17.3713 18.4621 17.185 18.2001 17.0838C17.9381 16.9827 17.6498 16.9728 17.3815 17.0556C17.1132 17.1383 16.8805 17.3091 16.7211 17.5402C16.5616 17.7713 16.4847 18.0494 16.5025 18.3296C16.5204 18.6098 16.6321 18.8758 16.8196 19.0848C17.0072 19.2938 17.2596 19.4336 17.5363 19.4816C17.8129 19.5296 18.0977 19.4831 18.3447 19.3495C18.5916 19.2159 18.7864 19.0031 18.8977 18.7453L18.4004 18.5307C18.3374 18.6768 18.227 18.7974 18.087 18.8731C17.947 18.9488 17.7857 18.9752 17.6289 18.948C17.4721 18.9208 17.329 18.8416 17.2227 18.7231C17.1165 18.6047 17.0532 18.4539 17.043 18.2951C17.0329 18.1363 17.0765 17.9787 17.1669 17.8477C17.2573 17.7167 17.3891 17.62 17.5411 17.5731C17.6932 17.5262 17.8566 17.5318 18.0051 17.5891C18.1535 17.6464 18.2784 17.752 18.3595 17.8889L18.8254 17.6129Z"/>
</mask>
<path d="M18.8254 17.6129C18.6823 17.3713 18.4621 17.185 18.2001 17.0838C17.9381 16.9827 17.6498 16.9728 17.3815 17.0556C17.1132 17.1383 16.8805 17.3091 16.7211 17.5402C16.5616 17.7713 16.4847 18.0494 16.5025 18.3296C16.5204 18.6098 16.6321 18.8758 16.8196 19.0848C17.0072 19.2938 17.2596 19.4336 17.5363 19.4816C17.8129 19.5296 18.0977 19.4831 18.3447 19.3495C18.5916 19.2159 18.7864 19.0031 18.8977 18.7453L18.4004 18.5307C18.3374 18.6768 18.227 18.7974 18.087 18.8731C17.947 18.9488 17.7857 18.9752 17.6289 18.948C17.4721 18.9208 17.329 18.8416 17.2227 18.7231C17.1165 18.6047 17.0532 18.4539 17.043 18.2951C17.0329 18.1363 17.0765 17.9787 17.1669 17.8477C17.2573 17.7167 17.3891 17.62 17.5411 17.5731C17.6932 17.5262 17.8566 17.5318 18.0051 17.5891C18.1535 17.6464 18.2784 17.752 18.3595 17.8889L18.8254 17.6129Z" fill="black" stroke="black" stroke-width="4" mask="url(#path-2-inside-1_12_76)"/>
<mask id="path-3-inside-2_12_76" fill="white">
<path d="M27.2421 7.70938C26.9929 7.83874 26.7945 8.04824 26.6789 8.30413C26.5633 8.56001 26.5372 8.84736 26.6048 9.11988C26.6725 9.39241 26.8299 9.63422 27.0517 9.80636C27.2735 9.9785 27.5469 10.0709 27.8276 10.0688C28.1084 10.0666 28.3803 9.96999 28.5995 9.79446C28.8186 9.61893 28.9723 9.37472 29.0357 9.10119C29.0992 8.82766 29.0686 8.54074 28.9491 8.28666C28.8296 8.03259 28.628 7.82617 28.3768 7.70065L28.1347 8.18512C28.277 8.25626 28.3913 8.37324 28.459 8.51723C28.5268 8.66122 28.5441 8.82383 28.5081 8.97884C28.4722 9.13386 28.3851 9.27226 28.2609 9.37174C28.1367 9.47122 27.9826 9.52598 27.8235 9.52721C27.6644 9.52843 27.5095 9.47604 27.3837 9.37849C27.258 9.28093 27.1688 9.14389 27.1305 8.98944C27.0922 8.835 27.1069 8.67214 27.1725 8.52713C27.238 8.38211 27.3504 8.26338 27.4917 8.19007L27.2421 7.70938Z"/>
</mask>
<path d="M27.2421 7.70938C26.9929 7.83874 26.7945 8.04824 26.6789 8.30413C26.5633 8.56001 26.5372 8.84736 26.6048 9.11988C26.6725 9.39241 26.8299 9.63422 27.0517 9.80636C27.2735 9.9785 27.5469 10.0709 27.8276 10.0688C28.1084 10.0666 28.3803 9.96999 28.5995 9.79446C28.8186 9.61893 28.9723 9.37472 29.0357 9.10119C29.0992 8.82766 29.0686 8.54074 28.9491 8.28666C28.8296 8.03259 28.628 7.82617 28.3768 7.70065L28.1347 8.18512C28.277 8.25626 28.3913 8.37324 28.459 8.51723C28.5268 8.66122 28.5441 8.82383 28.5081 8.97884C28.4722 9.13386 28.3851 9.27226 28.2609 9.37174C28.1367 9.47122 27.9826 9.52598 27.8235 9.52721C27.6644 9.52843 27.5095 9.47604 27.3837 9.37849C27.258 9.28093 27.1688 9.14389 27.1305 8.98944C27.0922 8.835 27.1069 8.67214 27.1725 8.52713C27.238 8.38211 27.3504 8.26338 27.4917 8.19007L27.2421 7.70938Z" fill="black" stroke="black" stroke-width="4" mask="url(#path-3-inside-2_12_76)"/>
<mask id="path-4-inside-3_12_76" fill="white">
<path d="M3.17183 16.6587C2.92417 16.791 2.72826 17.0029 2.61567 17.2601C2.50309 17.5173 2.4804 17.805 2.55124 18.0767C2.62209 18.3484 2.78235 18.5883 3.0062 18.7578C3.23006 18.9273 3.50446 19.0165 3.78519 19.0111C4.06593 19.0056 4.33664 18.9057 4.55371 18.7276C4.77078 18.5495 4.92155 18.3035 4.98174 18.0292C5.04193 17.755 5.00803 17.4684 4.88549 17.2158C4.76296 16.9632 4.55893 16.7591 4.30629 16.6366L4.06994 17.1239C4.21312 17.1933 4.32875 17.309 4.39819 17.4521C4.46764 17.5953 4.48685 17.7577 4.45274 17.9131C4.41863 18.0686 4.33318 18.208 4.21016 18.3089C4.08715 18.4099 3.93372 18.4665 3.77462 18.4696C3.61552 18.4727 3.46001 18.4221 3.33315 18.3261C3.20628 18.23 3.11546 18.094 3.07531 17.94C3.03516 17.786 3.04802 17.623 3.11182 17.4773C3.17563 17.3315 3.28666 17.2114 3.42702 17.1364L3.17183 16.6587Z"/>
</mask>
<path d="M3.17183 16.6587C2.92417 16.791 2.72826 17.0029 2.61567 17.2601C2.50309 17.5173 2.4804 17.805 2.55124 18.0767C2.62209 18.3484 2.78235 18.5883 3.0062 18.7578C3.23006 18.9273 3.50446 19.0165 3.78519 19.0111C4.06593 19.0056 4.33664 18.9057 4.55371 18.7276C4.77078 18.5495 4.92155 18.3035 4.98174 18.0292C5.04193 17.755 5.00803 17.4684 4.88549 17.2158C4.76296 16.9632 4.55893 16.7591 4.30629 16.6366L4.06994 17.1239C4.21312 17.1933 4.32875 17.309 4.39819 17.4521C4.46764 17.5953 4.48685 17.7577 4.45274 17.9131C4.41863 18.0686 4.33318 18.208 4.21016 18.3089C4.08715 18.4099 3.93372 18.4665 3.77462 18.4696C3.61552 18.4727 3.46001 18.4221 3.33315 18.3261C3.20628 18.23 3.11546 18.094 3.07531 17.94C3.03516 17.786 3.04802 17.623 3.11182 17.4773C3.17563 17.3315 3.28666 17.2114 3.42702 17.1364L3.17183 16.6587Z" fill="black" stroke="black" stroke-width="4" mask="url(#path-4-inside-3_12_76)"/>
</svg>
