<svg width="37" height="20" viewBox="0 0 37 20" fill="none" xmlns="http://www.w3.org/2000/svg">
<path d="M3.11928 1H1.61928V6H17.1193V4H18.1193V6H33.1193V4H36.1193V5.5H35.1193V5H34.1193V7H25.6193V17.1182C26.1437 17.3807 26.409 18.0387 26.1193 18.6182L25.6779 19.5H24.5607L24.1193 18.6182C23.8296 18.0388 24.095 17.3807 24.6193 17.1182V7H12.1193V17.1182C12.6437 17.3807 12.909 18.0387 12.6193 18.6182L12.1779 19.5H11.0607L10.6193 18.6182C10.3296 18.0388 10.595 17.3807 11.1193 17.1182V7H1.61928V19.5L0.672013 19.7236L0.119278 18.6182C-0.17037 18.0388 0.0949592 17.3807 0.619278 17.1182V0H3.11928V1Z" fill="black"/>
</svg>
